<mxfile host="Electron" modified="2023-08-14T03:40:59.649Z" agent="Mozilla/5.0 (Windows NT 10.0; Win64; x64) AppleWebKit/537.36 (KHTML, like Gecko) draw.io/21.6.8 Chrome/114.0.5735.289 Electron/25.5.0 Safari/537.36" etag="Iv2--GKY2MfHAkTXrHiS" version="21.6.8" type="device" pages="2">
  <diagram name="9.2" id="WyxD0aOs2plOgybWSySm">
    <mxGraphModel dx="880" dy="511" grid="1" gridSize="10" guides="1" tooltips="1" connect="1" arrows="1" fold="1" page="1" pageScale="1" pageWidth="1169" pageHeight="827" math="0" shadow="0">
      <root>
        <mxCell id="0" />
        <mxCell id="1" parent="0" />
        <mxCell id="H2LSqVTib4IPZ2RdGRiy-1" value="&lt;b&gt;&lt;i&gt;Shape&lt;/i&gt;&lt;/b&gt;" style="html=1;whiteSpace=wrap;" vertex="1" parent="1">
          <mxGeometry x="120" width="110" height="40" as="geometry" />
        </mxCell>
        <mxCell id="H2LSqVTib4IPZ2RdGRiy-2" value="&lt;b&gt;&lt;span style=&quot;font-style: normal;&quot;&gt;Polygon&lt;/span&gt;&lt;/b&gt;" style="html=1;whiteSpace=wrap;fontStyle=2" vertex="1" parent="1">
          <mxGeometry y="120" width="110" height="40" as="geometry" />
        </mxCell>
        <mxCell id="H2LSqVTib4IPZ2RdGRiy-3" value="&lt;b&gt;Ellipse&lt;/b&gt;" style="html=1;whiteSpace=wrap;" vertex="1" parent="1">
          <mxGeometry x="120" y="120" width="110" height="40" as="geometry" />
        </mxCell>
        <mxCell id="H2LSqVTib4IPZ2RdGRiy-4" value="&lt;b&gt;Spline&lt;/b&gt;" style="html=1;whiteSpace=wrap;" vertex="1" parent="1">
          <mxGeometry x="240" y="120" width="110" height="40" as="geometry" />
        </mxCell>
        <mxCell id="H2LSqVTib4IPZ2RdGRiy-5" value="&lt;b&gt;&lt;i&gt;Shape&lt;/i&gt;&lt;/b&gt;" style="html=1;whiteSpace=wrap;" vertex="1" parent="1">
          <mxGeometry x="120" y="180" width="110" height="40" as="geometry" />
        </mxCell>
        <mxCell id="H2LSqVTib4IPZ2RdGRiy-6" value="&lt;b&gt;&lt;span style=&quot;font-style: normal;&quot;&gt;Polygon&lt;/span&gt;&lt;/b&gt;" style="html=1;whiteSpace=wrap;fontStyle=2" vertex="1" parent="1">
          <mxGeometry y="300" width="110" height="40" as="geometry" />
        </mxCell>
        <mxCell id="H2LSqVTib4IPZ2RdGRiy-7" value="&lt;b&gt;Ellipse&lt;/b&gt;" style="html=1;whiteSpace=wrap;" vertex="1" parent="1">
          <mxGeometry x="120" y="300" width="110" height="40" as="geometry" />
        </mxCell>
        <mxCell id="H2LSqVTib4IPZ2RdGRiy-8" value="&lt;b&gt;Spline&lt;/b&gt;" style="html=1;whiteSpace=wrap;" vertex="1" parent="1">
          <mxGeometry x="240" y="300" width="110" height="40" as="geometry" />
        </mxCell>
        <mxCell id="H2LSqVTib4IPZ2RdGRiy-9" value="" style="endArrow=block;startArrow=none;endFill=0;startFill=0;endSize=8;html=1;verticalAlign=bottom;labelBackgroundColor=none;rounded=0;entryX=0.25;entryY=1;entryDx=0;entryDy=0;exitX=0.5;exitY=0;exitDx=0;exitDy=0;" edge="1" parent="1" source="H2LSqVTib4IPZ2RdGRiy-2" target="H2LSqVTib4IPZ2RdGRiy-1">
          <mxGeometry width="160" relative="1" as="geometry">
            <mxPoint x="330" y="230" as="sourcePoint" />
            <mxPoint x="490" y="230" as="targetPoint" />
          </mxGeometry>
        </mxCell>
        <mxCell id="H2LSqVTib4IPZ2RdGRiy-10" value="" style="endArrow=block;startArrow=none;endFill=0;startFill=0;endSize=8;html=1;verticalAlign=bottom;labelBackgroundColor=none;rounded=0;entryX=0.5;entryY=1;entryDx=0;entryDy=0;exitX=0.5;exitY=0;exitDx=0;exitDy=0;" edge="1" parent="1" source="H2LSqVTib4IPZ2RdGRiy-3" target="H2LSqVTib4IPZ2RdGRiy-1">
          <mxGeometry width="160" relative="1" as="geometry">
            <mxPoint x="65" y="130" as="sourcePoint" />
            <mxPoint x="185" y="50" as="targetPoint" />
          </mxGeometry>
        </mxCell>
        <mxCell id="H2LSqVTib4IPZ2RdGRiy-11" value="" style="endArrow=block;startArrow=none;endFill=0;startFill=0;endSize=8;html=1;verticalAlign=bottom;labelBackgroundColor=none;rounded=0;entryX=0.75;entryY=1;entryDx=0;entryDy=0;exitX=0.5;exitY=0;exitDx=0;exitDy=0;" edge="1" parent="1" source="H2LSqVTib4IPZ2RdGRiy-4" target="H2LSqVTib4IPZ2RdGRiy-1">
          <mxGeometry width="160" relative="1" as="geometry">
            <mxPoint x="185" y="130" as="sourcePoint" />
            <mxPoint x="185" y="50" as="targetPoint" />
          </mxGeometry>
        </mxCell>
        <mxCell id="H2LSqVTib4IPZ2RdGRiy-12" value="" style="endArrow=block;startArrow=none;endFill=0;startFill=0;endSize=8;html=1;verticalAlign=bottom;labelBackgroundColor=none;rounded=0;entryX=0.5;entryY=1;entryDx=0;entryDy=0;exitX=0.5;exitY=0;exitDx=0;exitDy=0;edgeStyle=orthogonalEdgeStyle;" edge="1" parent="1" source="H2LSqVTib4IPZ2RdGRiy-6" target="H2LSqVTib4IPZ2RdGRiy-5">
          <mxGeometry width="160" relative="1" as="geometry">
            <mxPoint x="65" y="310" as="sourcePoint" />
            <mxPoint x="158" y="230" as="targetPoint" />
          </mxGeometry>
        </mxCell>
        <mxCell id="H2LSqVTib4IPZ2RdGRiy-13" value="" style="endArrow=block;startArrow=none;endFill=0;startFill=0;endSize=8;html=1;verticalAlign=bottom;labelBackgroundColor=none;rounded=0;entryX=0.5;entryY=1;entryDx=0;entryDy=0;exitX=0.5;exitY=0;exitDx=0;exitDy=0;edgeStyle=orthogonalEdgeStyle;" edge="1" parent="1" source="H2LSqVTib4IPZ2RdGRiy-7" target="H2LSqVTib4IPZ2RdGRiy-5">
          <mxGeometry width="160" relative="1" as="geometry">
            <mxPoint x="65" y="310" as="sourcePoint" />
            <mxPoint x="185" y="230" as="targetPoint" />
          </mxGeometry>
        </mxCell>
        <mxCell id="H2LSqVTib4IPZ2RdGRiy-14" value="" style="endArrow=block;startArrow=none;endFill=0;startFill=0;endSize=8;html=1;verticalAlign=bottom;labelBackgroundColor=none;rounded=0;entryX=0.5;entryY=1;entryDx=0;entryDy=0;exitX=0.5;exitY=0;exitDx=0;exitDy=0;edgeStyle=orthogonalEdgeStyle;" edge="1" parent="1" source="H2LSqVTib4IPZ2RdGRiy-8" target="H2LSqVTib4IPZ2RdGRiy-5">
          <mxGeometry width="160" relative="1" as="geometry">
            <mxPoint x="65" y="310" as="sourcePoint" />
            <mxPoint x="185" y="230" as="targetPoint" />
          </mxGeometry>
        </mxCell>
        <mxCell id="H2LSqVTib4IPZ2RdGRiy-15" value="&lt;b&gt;Figure 9.2 Generalization notation showing different target styles&lt;/b&gt;" style="text;html=1;align=left;verticalAlign=middle;resizable=0;points=[];autosize=1;strokeColor=none;fillColor=none;fontSize=11;fontFamily=Helvetica;fontColor=default;" vertex="1" parent="1">
          <mxGeometry y="340" width="360" height="30" as="geometry" />
        </mxCell>
      </root>
    </mxGraphModel>
  </diagram>
  <diagram id="q_BMyGBSSAlOxUfdl8AH" name="9.3">
    <mxGraphModel dx="880" dy="511" grid="1" gridSize="10" guides="1" tooltips="1" connect="1" arrows="1" fold="1" page="1" pageScale="1" pageWidth="1169" pageHeight="827" math="0" shadow="0">
      <root>
        <mxCell id="0" />
        <mxCell id="1" parent="0" />
        <mxCell id="yz7i9PjcJX4RjiIUMZLB-1" value="Window" style="html=1;whiteSpace=wrap;" vertex="1" parent="1">
          <mxGeometry width="110" height="50" as="geometry" />
        </mxCell>
        <mxCell id="yz7i9PjcJX4RjiIUMZLB-2" value="ResizableWindow" style="html=1;whiteSpace=wrap;" vertex="1" parent="1">
          <mxGeometry x="235" width="120" height="50" as="geometry" />
        </mxCell>
        <mxCell id="yz7i9PjcJX4RjiIUMZLB-3" value="«substitute»" style="endArrow=open;html=1;rounded=0;align=center;verticalAlign=top;dashed=1;endFill=0;labelBackgroundColor=none;entryX=1;entryY=0.5;entryDx=0;entryDy=0;exitX=0;exitY=0.5;exitDx=0;exitDy=0;endSize=12;" edge="1" parent="1" source="yz7i9PjcJX4RjiIUMZLB-2" target="yz7i9PjcJX4RjiIUMZLB-1">
          <mxGeometry relative="1" as="geometry">
            <mxPoint x="270" y="24.5" as="sourcePoint" />
            <mxPoint x="110" y="25" as="targetPoint" />
            <mxPoint as="offset" />
          </mxGeometry>
        </mxCell>
        <mxCell id="yz7i9PjcJX4RjiIUMZLB-4" value="&lt;b&gt;Figure 9.3 Example of Substitution notation&lt;/b&gt;" style="text;html=1;align=left;verticalAlign=middle;resizable=0;points=[];autosize=1;strokeColor=none;fillColor=none;fontSize=11;fontFamily=Helvetica;fontColor=default;" vertex="1" parent="1">
          <mxGeometry y="50" width="250" height="30" as="geometry" />
        </mxCell>
      </root>
    </mxGraphModel>
  </diagram>
</mxfile>
